<?xml version="1.0" standalone="no"?><!DOCTYPE svg PUBLIC "-//W3C//DTD SVG 1.1//EN" "http://www.w3.org/Graphics/SVG/1.1/DTD/svg11.dtd"><svg class="icon" width="200px" height="200.00px" viewBox="0 0 1024 1024" version="1.1" xmlns="http://www.w3.org/2000/svg"><path fill="#333333" d="M399.686517 64.233953 121.50789 64.233953c-40.929178 0-74.161047 33.443693-74.161047 74.704422l0 261.425058c0 41.261753 33.231869 74.706469 74.161047 74.706469l352.371396 0L473.879286 138.939399C473.879286 97.677647 440.677093 64.233953 399.686517 64.233953zM418.250314 419.049005 158.634462 419.049005c-30.726815 0-55.659671-25.112957-55.659671-56.021921L102.974791 176.277796c0-30.93864 24.931832-56.021921 55.659671-56.021921l203.984834 0c30.727839 0 55.629995 25.082258 55.629995 56.021921L418.249291 419.049005zM900.443451 64.233953 622.265848 64.233953c-40.990576 0-74.193793 33.443693-74.193793 74.704422l0 336.13255 352.371396 0c40.930201 0 74.16207-33.444716 74.16207-74.706469L974.605521 138.939399C974.604498 97.677647 941.373653 64.233953 900.443451 64.233953zM918.97655 363.027084c0 30.908964-24.932856 56.021921-55.660694 56.021921L603.700003 419.049005 603.700003 176.277796c0-30.93864 24.90318-56.021921 55.629995-56.021921L863.315856 120.255875c30.726815 0 55.660694 25.082258 55.660694 56.021921L918.97655 363.027084zM47.347866 624.452141l0 261.426081c0 41.261753 33.231869 74.706469 74.161047 74.706469L399.686517 960.584692c40.990576 0 74.192769-33.444716 74.192769-74.706469L473.879286 549.746696 121.50789 549.746696C80.578712 549.746696 47.347866 583.189366 47.347866 624.452141zM418.250314 605.767594l0 242.772232c0 30.937616-24.902156 56.021921-55.629995 56.021921L158.634462 904.561747c-30.726815 0-55.659671-25.084305-55.659671-56.021921L102.974791 661.789515c0-30.906917 24.931832-56.021921 55.659671-56.021921L418.250314 605.767594zM900.443451 549.746696 548.072055 549.746696l0 336.131527c0 41.261753 33.203216 74.706469 74.193793 74.706469l278.177604 0c40.930201 0 74.16207-33.444716 74.16207-74.706469L974.605521 624.452141C974.604498 583.189366 941.373653 549.746696 900.443451 549.746696zM918.97655 848.539826c0 30.937616-24.932856 56.021921-55.660694 56.021921L659.329998 904.561747c-30.726815 0-55.629995-25.084305-55.629995-56.021921L603.700003 605.767594 863.315856 605.767594c30.726815 0 55.660694 25.115004 55.660694 56.021921L918.97655 848.539826z" /></svg>