<?xml version="1.0" standalone="no"?><!DOCTYPE svg PUBLIC "-//W3C//DTD SVG 1.1//EN" "http://www.w3.org/Graphics/SVG/1.1/DTD/svg11.dtd"><svg class="icon" width="200px" height="200.00px" viewBox="0 0 1024 1024" version="1.1" xmlns="http://www.w3.org/2000/svg"><path d="M961.024 281.6c-7.68-8.704-18.944-13.824-30.72-13.824H237.056l4.096 15.36c3.072 10.752-3.584 22.016-14.336 25.088-2.048 0.512-3.584 0.512-5.632 0.512-9.216 0-17.408-6.144-19.968-15.36l-7.168-25.6 122.88 451.584c5.12 17.92 21.504 30.208 39.424 30.208h521.728c19.968 0 36.864-14.336 40.448-34.304l51.712-400.896c2.048-12.288-1.536-24.064-9.216-32.768zM307.2 389.632c-11.264 0-20.48-9.216-20.48-20.48s9.216-20.48 20.48-20.48 20.48 9.216 20.48 20.48-9.216 20.48-20.48 20.48z m516.608 84.48l-37.376 174.592c-2.048 9.728-10.752 16.384-19.968 16.384-1.536 0-3.072 0-4.096-0.512-11.264-2.56-17.92-13.312-15.872-24.064l37.376-174.592c2.56-11.264 13.312-17.92 24.064-15.872 11.264 2.56 18.432 13.312 15.872 24.064z"  /><path d="M221.184 308.736c1.536 0 3.584 0 5.632-0.512 10.752-3.072 17.408-14.336 14.336-25.088l-4.096-15.36L204.8 147.968c-5.12-17.92-21.504-30.208-39.936-30.208H71.68c-11.264 0-20.48 9.216-20.48 20.48s9.216 20.48 20.48 20.48h93.184L194.56 267.776l7.168 25.6c2.56 9.216 10.752 15.36 19.456 15.36z"  /><path d="M807.936 450.048c-11.264-2.56-22.016 4.608-24.064 15.872l-37.376 174.592c-2.56 11.264 4.608 22.016 15.872 24.064 1.536 0.512 3.072 0.512 4.096 0.512 9.216 0 17.92-6.656 19.968-16.384l37.376-174.592c2.56-10.752-4.608-21.504-15.872-24.064z" fill="#FFFFFF" /><path d="M307.2 369.152m-20.48 0a20.48 20.48 0 1 0 40.96 0 20.48 20.48 0 1 0-40.96 0Z" fill="#FFFFFF" /><path d="M375.296 820.736c-16.896 16.896-26.624 39.424-27.136 63.488-0.512 24.064 8.704 46.592 25.6 63.488 16.384 16.384 38.4 25.6 61.952 25.6h1.536c24.064-0.512 46.08-9.728 63.488-27.136 16.896-16.896 26.624-39.424 27.136-63.488 0.512-24.064-8.704-46.592-25.6-63.488-34.816-34.816-91.648-33.792-126.976 1.536zM723.456 820.736c-35.328 35.328-35.84 92.16-1.536 126.464 16.896 16.896 39.424 25.6 61.952 25.6 23.04 0 46.592-9.216 64.512-27.136 35.328-35.328 35.84-92.16 1.536-126.464s-91.136-33.792-126.464 1.536z"  /></svg>