<?xml version="1.0" standalone="no"?><!DOCTYPE svg PUBLIC "-//W3C//DTD SVG 1.1//EN" "http://www.w3.org/Graphics/SVG/1.1/DTD/svg11.dtd"><svg class="icon" width="200px" height="200.00px" viewBox="0 0 1024 1024" version="1.1" xmlns="http://www.w3.org/2000/svg"><path fill="#333333" d="M992.02784 443.104L603.38784 38.912a125.952 125.952 0 0 0-182.048 0L32.85984 443.104c-40.096 41.6-34.944 77.792-28.32 92.8A67.424 67.424 0 0 0 71.03584 576h56.96v310.944A130.88 130.88 0 0 0 250.81184 1024h165.44V694.944c0-35.2-5.344-54.944 30.72-54.944h130.752c36.064 0 30.72 19.648 30.72 54.944V1024h165.44A130.88 130.88 0 0 0 896.85984 886.944V576h56.96a67.424 67.424 0 0 0 66.624-40.064c6.528-15.072 11.68-51.136-28.416-92.832zM953.69184 512h-121.024v374.944A67.744 67.744 0 0 1 773.88384 960h-101.376v-265.056c0-70.592-22.656-118.944-94.784-118.944h-130.752c-72.128 0-94.784 48.352-94.784 118.944V960H250.81184a67.744 67.744 0 0 1-58.784-73.056V512H71.03584a51.936 51.936 0 0 1-3.2-4.48 88 88 0 0 1 12.384-20.288L468.98784 83.2A61.664 61.664 0 0 1 512.85984 64a59.488 59.488 0 0 1 42.88 19.2l388.672 404.064a88 88 0 0 1 12.384 20.288 52.672 52.672 0 0 1-3.104 4.448z" /></svg>