<?xml version="1.0" standalone="no"?><!DOCTYPE svg PUBLIC "-//W3C//DTD SVG 1.1//EN" "http://www.w3.org/Graphics/SVG/1.1/DTD/svg11.dtd"><svg class="icon" width="200px" height="200.00px" viewBox="0 0 1024 1024" version="1.1" xmlns="http://www.w3.org/2000/svg"><path d="M513.062 606.505c-54.463 0-105.667-21.209-144.178-59.722-38.513-38.512-59.722-89.715-59.722-144.178s21.209-105.667 59.722-144.179c38.511-38.512 89.715-59.721 144.178-59.721 54.464 0 105.667 21.209 144.179 59.721s59.721 89.715 59.721 144.179-21.209 105.666-59.721 144.178c-38.512 38.513-89.716 59.722-144.179 59.722z m0-399.187c-107.681 0-195.286 87.605-195.286 195.287s87.605 195.286 195.286 195.286c107.682 0 195.287-87.604 195.287-195.286 0-107.68-87.606-195.287-195.287-195.287z" fill="#4F4644" /><path d="M513.062 616.505c-57.135 0-110.85-22.25-151.249-62.65-40.4-40.4-62.65-94.115-62.65-151.249 0-57.136 22.25-110.85 62.65-151.25 40.399-40.4 94.114-62.649 151.249-62.649s110.85 22.249 151.25 62.65c40.399 40.399 62.649 94.114 62.649 151.249 0 57.134-22.25 110.849-62.649 151.249-40.401 40.4-94.116 62.65-151.25 62.65z"  /><path d="M186.369 825.13l3.093-6.279c0.215-0.438 21.901-44.176 55.849-87.939 20.014-25.799 40.338-46.602 60.407-61.83 25.414-19.285 50.55-29.684 74.71-30.906l0.373-0.02 0.371 0.046c38.007 4.679 64.091 18.687 85.051 29.943 17.661 9.485 31.612 16.978 47.283 16.978 8.212 0 16.535-2.115 25.44-6.467 36.222-17.699 78.409-35.791 116.693-35.791 9.381 0 18.478 1.07 27.042 3.182 21.653 5.336 51.928 26.463 80.984 56.51 32.181 33.281 58.155 72.398 73.135 110.15l2.314 5.83-6.272 0.064-646.473 6.529z m194.123-178.334c-50.944 2.799-97.915 50.129-128.375 89.396-25.891 33.375-44.506 66.672-51.678 80.182l625.956-6.32c-14.869-34.911-39.164-70.735-68.921-101.509-27.561-28.501-57.01-49.243-76.855-54.136-7.889-1.945-16.293-2.93-24.979-2.93-36.528 0-77.576 17.65-112.911 34.915-10.111 4.94-19.67 7.341-29.224 7.341-17.837 0-33.371-8.342-51.358-18.002-21.311-11.447-45.457-24.414-81.655-28.937z" fill="#4F4644" /><path d="M170.216 835.294l10.275-20.861c0.218-0.443 22.321-45.05 56.918-89.65 20.551-26.49 41.499-47.911 62.265-63.667 27.044-20.522 54.044-31.602 80.248-32.928l1.235-0.064 1.243 0.154c39.863 4.907 66.86 19.407 88.554 31.058 17.065 9.165 29.395 15.787 42.552 15.787 6.657 0 13.543-1.783 21.05-5.451 37.247-18.2 80.761-36.807 121.084-36.807 10.186 0 20.089 1.168 29.436 3.473 23.749 5.853 55.015 27.454 85.779 59.268 33.072 34.203 59.793 74.48 75.241 113.413l7.688 19.368-20.839 0.214-662.729 6.693z"  /></svg>